<svg width="194" height="34" viewBox="0 0 194 34" fill="none" xmlns="http://www.w3.org/2000/svg">
<g clip-path="url(#clip0_10494_2066)">
<path d="M112.175 25.3209H106.818C106.639 25.3209 106.508 25.1483 106.557 24.9756C107.453 21.9487 108.386 18.5224 109.032 14.724C109.695 10.796 110.042 7.17554 110.188 3.94356C110.194 3.79788 110.313 3.68457 110.46 3.68457H126.381C126.531 3.68457 126.653 3.80536 126.653 3.95436V25.0512C126.653 25.2002 126.531 25.3209 126.381 25.3209H121.164C121.014 25.3209 120.893 25.2002 120.893 25.0512V8.75644H115.656C115.463 11.1612 115.139 13.7451 114.607 16.4721C113.988 19.6664 113.255 22.5638 112.43 25.1374C112.398 25.2455 112.289 25.3209 112.175 25.3209Z" fill="#EE2F53"/>
<path d="M0.5 3.95436C0.5 3.80536 0.621644 3.68457 0.7717 3.68457H16.1528C16.3448 3.68457 16.4748 3.88104 16.4002 4.05865L14.4955 8.59168C14.4452 8.71141 14.3301 8.76589 14.2209 8.7551C14.2119 8.75599 14.2028 8.75644 14.1937 8.75644H6.26004V25.0512C6.26004 25.2002 6.13839 25.3209 5.98833 25.3209H0.7717C0.621644 25.3209 0.5 25.2002 0.5 25.0512V3.95436Z" fill="#0066B3"/>
<path d="M155.09 3.95436C155.09 3.80536 155.212 3.68457 155.362 3.68457H170.743C170.935 3.68457 171.065 3.88104 170.991 4.05865L169.086 8.59168C169.036 8.71141 168.921 8.76589 168.812 8.7551C168.802 8.75599 168.793 8.75644 168.784 8.75644H160.85V25.0512C160.85 25.2002 160.729 25.3209 160.578 25.3209H155.362C155.212 25.3209 155.09 25.2002 155.09 25.0512V3.95436Z" fill="#EE2F53"/>
<path d="M62.753 3.68457C62.5645 3.68457 62.4334 3.86874 62.4982 4.04262L70.4241 25.3244C69.3056 27.6593 68.0631 30.1169 66.6419 32.8564C66.5489 33.0356 66.6785 33.2525 66.8821 33.2525H72.5205C72.6229 33.2525 72.7174 33.1942 72.7636 33.1036C76.9358 24.6735 80.0061 17.2006 84.2037 4.04108C84.261 3.8671 84.1313 3.68457 83.9467 3.68457H78.7096C78.588 3.68457 78.4806 3.76674 78.4475 3.88254C76.8312 9.50838 75.3413 13.9119 73.6141 18.1557L68.2896 3.8595C68.2505 3.75444 68.1487 3.68457 68.035 3.68457H62.753Z" fill="#EE2F53"/>
<path d="M130.182 3.68457C129.993 3.68457 129.862 3.86874 129.927 4.04262L137.853 25.3244C136.735 27.6593 135.492 30.1169 134.071 32.8564C133.978 33.0356 134.107 33.2525 134.311 33.2525H139.949C140.052 33.2525 140.146 33.1942 140.193 33.1036C144.365 24.6735 147.435 17.2006 151.633 4.04108C151.69 3.8671 151.56 3.68457 151.376 3.68457H146.139C146.017 3.68457 145.91 3.76674 145.876 3.88254C144.26 9.50838 142.77 13.9119 141.043 18.1557L135.719 3.8595C135.679 3.75444 135.578 3.68457 135.464 3.68457H130.182Z" fill="#EE2F53"/>
<path d="M102.527 20.2131C102.5 20.1437 102.446 20.0852 102.376 20.0532C102.306 20.0212 102.225 20.0212 102.155 20.0425C100.904 20.501 98.5581 20.8741 96.9243 20.8741C93.3493 20.8741 91.6453 19.9198 91.6453 14.4979C91.6453 10.1635 92.1684 8.12164 96.9243 8.12164C98.2723 8.12164 99.5233 8.31357 101.114 8.77206C101.243 8.80938 101.384 8.75073 101.443 8.63345C102.036 7.52987 102.753 6.18104 103.562 4.52832C103.6 4.45369 103.6 4.36838 103.567 4.29375C103.535 4.2191 103.47 4.16047 103.389 4.13381C101.297 3.47273 98.8008 3.08887 96.5522 3.08887C89.0625 3.08887 85.7249 6.58088 85.7249 14.4179C85.7249 22.367 89.0625 25.9123 96.5522 25.9123C98.4286 25.9123 102.128 25.5231 103.912 24.8193C104.053 24.7608 104.128 24.6008 104.074 24.4622L102.527 20.2131Z" fill="#EE2F53"/>
<path d="M58.7029 20.2131C58.6758 20.1437 58.622 20.0852 58.5519 20.0532C58.4817 20.0212 58.4009 20.0212 58.3307 20.0425C57.0798 20.501 54.7343 20.8741 53.1005 20.8741C49.5254 20.8741 47.8216 19.9198 47.8216 14.4979C47.8216 10.1635 48.3446 8.12164 53.1005 8.12164C54.4485 8.12164 55.6994 8.31357 57.2901 8.77206C57.4194 8.80938 57.5597 8.75073 57.619 8.63345C58.2121 7.52987 58.9294 6.18104 59.7381 4.52832C59.7759 4.45369 59.7759 4.36838 59.7435 4.29375C59.7112 4.2191 59.6464 4.16047 59.5656 4.13381C57.4735 3.47273 54.9769 3.08887 52.7283 3.08887C45.2387 3.08887 41.901 6.58088 41.901 14.4179C41.901 22.367 45.2387 25.9123 52.7283 25.9123C54.6048 25.9123 58.3038 25.5231 60.0886 24.8193C60.2288 24.7608 60.3043 24.6008 60.2503 24.4622L58.7029 20.2131Z" fill="#0066B3"/>
<path d="M27.8627 3.08887C20.5405 3.08887 17.6894 6.26462 17.6894 14.417C17.6894 22.6934 20.5405 25.9123 27.8627 25.9123C35.2435 25.9123 38.1212 22.6934 38.1212 14.417C38.1212 6.26462 35.2435 3.08887 27.8627 3.08887ZM27.8627 21.1622C24.5267 21.1622 23.4875 20.2456 23.4875 14.4979C23.4875 8.3782 24.6226 7.83363 27.8627 7.83363C31.1667 7.83363 32.3231 8.3782 32.3231 14.4979C32.3231 20.2456 31.2627 21.1622 27.8627 21.1622Z" fill="#0066B3"/>
<path d="M192.581 3.68457H187.369C187.216 3.68457 187.096 3.80301 187.096 3.95377V20.2561C185.966 20.5683 184.838 20.719 183.566 20.719C180.405 20.719 179.488 19.8361 179.368 16.1536V3.95377C179.368 3.80301 179.249 3.68457 179.096 3.68457H173.884C173.731 3.68457 173.611 3.80301 173.611 3.95377V3.98607C173.611 3.98607 173.611 16.2559 173.617 16.2719C173.742 23.201 176.273 25.9145 182.523 25.9145C186.173 25.9145 190.246 24.9939 192.664 24.0786C192.777 24.0409 192.847 23.9332 192.847 23.8148V3.98607V3.95377C192.854 3.80301 192.734 3.68457 192.581 3.68457Z" fill="#EE2F53"/>
</g>
<defs>
<clipPath id="clip0_10494_2066">
<rect width="193" height="34" fill="white" transform="translate(0.5)"/>
</clipPath>
</defs>
</svg>
